<svg viewBox='0 0 24 24' xmlns='http://www.w3.org/2000/svg' xmlns:xlink='http://www.w3.org/1999/xlink'><rect width='24' height='24' stroke='none' fill='#648276' opacity='0'/>


<g transform="matrix(0.95 0 0 0.95 12 12)" >
<path style="stroke: none; stroke-width: 1; stroke-dasharray: none; stroke-linecap: butt; stroke-dashoffset: 0; stroke-linejoin: miter; stroke-miterlimit: 4; fill: rgb(0,0,0); fill-rule: nonzero; opacity: 1;" transform=" translate(-12, -11.5)" d="M 12 1 C 8.686 1 6 3.686 6 7 C 6 9.838 8.6302031 13.741687 10.408203 16.054688 C 11.214203 17.103687 12.786797 17.103687 13.591797 16.054688 C 15.369797 13.741687 18 9.838 18 7 C 18 3.686 15.314 1 12 1 z M 12 4.8574219 C 13.184 4.8574219 14.142578 5.816 14.142578 7 C 14.142578 8.183 13.183 9.1425781 12 9.1425781 C 10.817 9.1425781 9.8574219 8.184 9.8574219 7 C 9.8574219 5.816 10.816 4.8574219 12 4.8574219 z M 6.1542969 15 C 5.3362969 15 4.600875 15.498812 4.296875 16.257812 L 3.0976562 19.257812 C 2.5726563 20.571813 3.538125 22 4.953125 22 L 19.046875 22 C 20.461875 22 21.427344 20.571813 20.902344 19.257812 L 19.703125 16.257812 C 19.399125 15.498812 18.663703 15 17.845703 15 L 17 15 C 16.448 15 16 15.448 16 16 C 16 16.552 16.448 17 17 17 L 17.847656 17 L 18.773438 19.314453 C 18.904438 19.643453 18.662594 20 18.308594 20 L 5.6914062 20 C 5.3374062 20 5.0965156 19.643453 5.2285156 19.314453 L 6.1523438 17 L 7 17 C 7.552 17 8 16.552 8 16 C 8 15.448 7.552 15 7 15 L 6.1542969 15 z" stroke-linecap="round" />
</g>
</svg>